# AST/ASF file generated using VICON BodyLanguage
# -----------------------------------------------
:version 1.10
:name VICON
:units
  mass 1.0
  length 0.45
  angle deg
:documentation
   .ast/.asf automatically generated from VICON data using
   VICON BodyBuilder and BodyLanguage model FoxedUp or BRILLIANT.MOD
:root
   order TX TY TZ RX RY RZ
   axis XYZ
   position 0 0 0  
   orientation 0 0 0 
:bonedata
  begin
     id 1 
     name lhipjoint
     direction 0.70531 -0.63749 0.310071 
     length 2.59589 
     axis 0 0 0  XYZ
  end
  begin
     id 2 
     name lfemur
     direction 0.34202 -0.939693 0  
     length 6.19797  
     axis 0 0 20  XYZ
    dof rx ry rz
    limits (-160.0 20.0)
           (-70.0 70.0)
           (-60.0 70.0)
  end
  begin
     id 3 
     name ltibia
     direction 0.34202 -0.939693 0   
     length 7.80054   
     axis 0 0 20   XYZ
    dof rx
    limits (-10.0 170.0)
  end
  begin
     id 4 
     name lfoot
     direction 0.0828572 -0.227648 0.970212   
     length 1.88124   
     axis -90 7.62852e-016 20   XYZ
    dof rx rz
    limits (-45.0 90.0)
           (-70.0 20.0)
  end
  begin
     id 5 
     name ltoes
     direction 1.53544e-011 -4.219e-011 1   
     length 0.948015   
     axis -90 7.62852e-016 20   XYZ
    dof rx
    limits (-90.0 20.0)
  end
  begin
     id 6 
     name rhipjoint
     direction -0.730062 -0.614543 0.29891   
     length 2.69282  
     axis 0 0 0  XYZ 
  end
  begin
     id 7 
     name rfemur
     direction -0.34202 -0.939693 0   
     length 5.86298   
     axis 0 0 -20   XYZ
    dof rx ry rz
    limits (-160.0 20.0)
           (-70.0 70.0)
           (-70.0 60.0)
  end
  begin
     id 8 
     name rtibia
     direction -0.34202 -0.939693 0   
     length 7.72374   
     axis 0 0 -20   XYZ
    dof rx
    limits (-10.0 170.0)
 end
 begin
     id 9 
     name rfoot
     direction -0.0967421 -0.265797 0.959163   
     length 2.02368  
     axis -90 -7.62852e-016 -20   XYZ
    dof rx rz
    limits (-45.0 90.0)
           (-20.0 70.0)
  end
  begin
     id 10 
     name rtoes
     direction -1.53524e-011 -4.21768e-011 1   
     length 1.01373   
     axis -90 -7.62852e-016 -20   XYZ
    dof rx
    limits (-90.0 20.0)
  end
  begin
     id 11 
     name lowerback
     direction 0.00561702 0.992801 -0.119643   
     length 2.02816   
     axis 0 0 0   XYZ
    dof rx ry rz
    limits (-20.0 45.0)
           (-30.0 30.0)
           (-30.0 30.0)
  end
  begin
     id 12 
     name upperback
     direction 0.00155544 0.995735 -0.0922509   
     length 2.02265   
     axis 0 0 0   XYZ
    dof rx ry rz
    limits (-20.0 45.0)
           (-30.0 30.0)
           (-30.0 30.0)
  end
  begin
     id 13 
     name thorax
     direction -0.000937535 0.999317 -0.0369292   
     length 2.04823   
     axis 0 0 0   XYZ
    dof rx ry rz
    limits (-20.0 45.0)
           (-30.0 30.0)
           (-30.0 30.0)
  end
  begin
     id 14 
     name lowerneck
     direction -0.0813151 0.981659 0.172436   
     length 1.8875   
     axis 0 0 0   XYZ
    dof rx ry rz
    limits (-20.0 45.0)
           (-30.0 30.0)
           (-30.0 30.0)
  end
  begin
     id 15 
     name upperneck
     direction 0.119359 0.955672 -0.269157   
     length 1.92801   
     axis 0 0 0   XYZ
    dof rx ry rz
    limits (-20.0 45.0)
           (-30.0 30.0)
           (-30.0 30.0)
  end
  begin
     id 16
     name head
     direction 0.0421007 0.992672 -0.113268  
     length 1.95809  
     axis 0 0 0   XYZ
    dof rx ry rz
    limits (-20.0 45.0)
           (-30.0 30.0)
           (-30.0 30.0)
  end
  begin
     id 17 
     name lclavicle
     direction 0.944093 0.32865 -0.0260136  
     length 3.84992  
     axis 0 0 0   XYZ
    dof ry rz
    limits (-20.0 10.0)
           (0.0 20.0)
  end
  begin
     id 18 
     name lhumerus
     direction 1 -4.48979e-011 -1.27712e-029   
     length 5.53593   
     axis 180 -30 -90   XYZ
    dof rx ry rz
    limits (-60.0 90.0)
           (-90.0 90.0)
           (-90.0 90.0)
  end
  begin
     id 19
     name lradius
     direction 1 -4.48966e-011 1.00051e-028   
     length 3.13345   
     axis 180 -30 -90   XYZ
    dof rx
    limits (-10.0 170.0)
  end
  begin
     id 20
     name lwrist
     direction 1 -4.4896e-011 2.56952e-028   
     length 1.56673   
     axis -5.12785e-016 90 90   XYZ
    dof ry
    limits (-180.0 0.0)
 end
  begin
     id 21 
     name lhand
     direction 1 -4.48934e-011 5.13905e-028   
     length 0.713374   
     axis -3.27915e-016 90 90   XYZ
    dof rx rz
    limits (-90.0 90.0)
           (-45.0 45.0)
  end
  begin
     id 22 
     name lfingers
     direction 1 -4.48973e-011 1.02781e-027   
     length 0.575141   
     axis -6.5583e-016 90 90   XYZ
    dof rx
    limits (0.0 90.0)
  end
  begin
     id 23
     name lthumb
     direction 0.707107 -6.34883e-011 0.707107   
     length 0.82579   
     axis -90 45 2.85299e-015   XYZ
    dof rx rz
    limits (-45.0 45.0)
           (-45.0 45.0)
  end
  begin
     id 24 
     name rclavicle
     direction -0.936895 0.34884 0.0232243   
     length 3.53304  
     axis 0 0 0   XYZ 
    dof ry rz
    limits (-10.0 20.0)
           (-20.0 0.0)
  end
  begin
     id 25 
     name rhumerus
     direction -1 -4.48965e-011 1.05514e-027  
     length 5.4685   
     axis 180 30 90   XYZ
    dof rx ry rz
    limits (-90.0 60.0)
           (-90.0 90.0)
           (-90.0 90.0)
  end
  begin
     id 26 
     name rradius
     direction -1 -4.48964e-011 -1.1079e-027   
     length 3.22411   
     axis 180 30 90   XYZ
    dof rx
    limits (-10.0 170.0)
  end
  begin
     id 27 
     name rwrist
     direction -1 -4.48973e-011 2.56952e-028   
     length 1.61206   
     axis -5.12785e-016 -90 -90   XYZ
    dof ry
    limits (-180.0 0.0)
  end
  begin
     id 28
     name rhand
     direction -1 -4.48957e-011 5.13905e-028   
     length 0.74528   
     axis -3.27915e-016 -90 -90   XYZ
    dof rx rz
    limits (-90.0 90.0)
           (-45.0 45.0)
  end
  begin
     id 29
     name rfingers
     direction -1 -4.4901e-011 1.02781e-027   
     length 0.600864   
     axis -6.5583e-016 -90 -90   XYZ
    dof rx
    limits (0.0 90.0)
  end
  begin
     id 30
     name rthumb
     direction -0.707107 -6.34972e-011 0.707107   
     length 0.862724   
     axis -90 -45 -2.85299e-015   XYZ
    dof rx rz
    limits (-45.0 45.0)
           (-45.0 45.0)
  end
:hierarchy
  begin
    root lhipjoint rhipjoint lowerback
    lhipjoint lfemur
    lfemur ltibia
    ltibia lfoot
    lfoot ltoes
    rhipjoint rfemur
    rfemur rtibia
    rtibia rfoot
    rfoot rtoes
    lowerback upperback
    upperback thorax
    thorax lowerneck lclavicle rclavicle
    lowerneck upperneck
    upperneck head
    lclavicle lhumerus
    lhumerus lradius
    lradius lwrist
    lwrist lhand lthumb
    lhand lfingers
    rclavicle rhumerus
    rhumerus rradius
    rradius rwrist
    rwrist rhand rthumb
    rhand rfingers
  end

#!OML:ASF G:\Work\Work\Patient Classification 1\Liu\Session 1\Liu.ASF
:FULLY-SPECIFIED
:DEGREES
209
root 10.3641 17.1354 -10.2147 3.42484 1.11818 4.91166
lowerback 1.94631 -1.15439 -3.1584
upperback 0.997378 -1.59328 -0.751041
thorax -0.00340811 -0.806024 1.029
lowerneck -20.6319 -3.18758 -10.7209
upperneck 25.375 -2.77156 6.49949
head 12.0265 -1.44177 3.80848
rclavicle 1.13307e-014 8.74653e-015
rhumerus -42.9296 17.4457 -90.9495
rradius 44.4739
rwrist -12.0997
rhand -14.2528 15.6212
rfingers 7.12502
rthumb 11.8854 -14.0215
lclavicle 1.13307e-014 8.74653e-015
lhumerus -29.1646 -13.1853 88.8998
lradius 29.2496
lwrist -2.04391
lhand -14.5548 30.4308
lfingers 7.12502
lthumb 11.5941 60.09
rfemur -31.3587 -7.91051 17.5934
rtibia 65.5162
rfoot -9.8788 -13.7432
rtoes -12.9834
lfemur -13.6805 -8.0017 -31.323
ltibia 27.7666
lfoot -17.114 1.86253
ltoes -12.6107
210
root 10.3603 17.1012 -10.0438 3.40068 1.28741 4.85382
lowerback 1.91843 -1.27526 -3.15644
upperback 1.09624 -1.75056 -0.659207
thorax 0.122894 -0.887634 1.12215
lowerneck -21.0422 -3.17808 -10.8054
upperneck 25.5498 -2.73891 6.67739
head 12.1768 -1.41015 3.90348
rclavicle 1.23495e-014 1.19271e-014
rhumerus -42.8984 17.5868 -90.9363
rradius 44.4822
rwrist -12.0757
rhand -14.8564 17.1069
rfingers 7.12502
rthumb 11.3032 -12.5685
lclavicle 1.23495e-014 1.19271e-014
lhumerus -28.5073 -13.8599 88.8774
lradius 29.8373
lwrist -1.78233
lhand -14.3125 30.6971
lfingers 7.12502
lthumb 11.8278 60.3431
rfemur -32.2568 -7.56846 17.7703
rtibia 64.112
rfoot -10.879 -13.8169
rtoes -13.3528
lfemur -12.9437 -7.70733 -31.3441
ltibia 27.8702
lfoot -17.6082 1.03151
ltoes -11.665
211
root 10.3574 17.0779 -9.87069 3.35098 1.5653 4.98945
lowerback 1.84912 -1.39712 -3.31691
upperback 1.21783 -1.90948 -0.653277
thorax 0.29887 -0.971699 1.21599
lowerneck -21.0644 -3.28534 -10.8687
upperneck 25.5366 -2.92388 6.86402
head 12.1996 -1.474 3.95558
rclavicle -3.91606e-014 1.59028e-015
rhumerus -42.975 17.4447 -90.8812
rradius 44.5083
rwrist -11.7145
rhand -15.081 17.5298
rfingers 7.12502
rthumb 11.0866 -12.1574
lclavicle -3.91606e-014 1.59028e-015
lhumerus -27.9108 -14.7867 88.8528
lradius 30.4665
lwrist -1.01535
lhand -14.0831 31.1668
lfingers 7.12502
lthumb 12.049 60.7999
rfemur -32.9214 -7.41462 17.6615
rtibia 62.4347
rfoot -11.6949 -13.706
rtoes -14.4441
lfemur -12.1491 -7.53945 -31.5645
ltibia 27.9062
lfoot -17.9935 0.342954
ltoes -10.6617
212
root 10.3544 17.0598 -9.6939 3.25709 1.74918 5.25617
lowerback 1.88393 -1.49973 -3.68336
upperback 1.23701 -2.05246 -0.632619
thorax 0.319754 -1.04594 1.44395
lowerneck -20.8348 -3.24371 -10.8207
upperneck 25.486 -2.90076 6.84261
head 12.1299 -1.46422 3.94075
rclavicle 4.87022e-015 -1.19271e-015
rhumerus -43.2298 17.3648 -90.8552
rradius 44.4899
rwrist -11.4355
rhand -15.4171 17.6791
rfingers 7.12502
rthumb 10.7624 -12.0252
lclavicle 4.87022e-015 -1.19271e-015
lhumerus -27.6601 -15.7577 89.0121
lradius 31.1166
lwrist 0.251536
lhand -14.3031 31.3555
lfingers 7.12502
lthumb 11.8369 61.0009
rfemur -33.3672 -7.15947 17.3304
rtibia 60.5243
rfoot -12.4295 -13.3616
rtoes -13.5337
lfemur -11.2695 -7.44541 -31.9296
ltibia 27.8133
lfoot -18.3883 -0.0701951
ltoes -9.89284
213
root 10.3499 17.0404 -9.52424 3.25296 1.87999 5.46734
lowerback 1.95122 -1.60334 -3.97462
upperback 1.27174 -2.197 -0.61326
thorax 0.337488 -1.12075 1.62928
lowerneck -21.1343 -3.17404 -10.6156
upperneck 25.6149 -2.78313 6.64388
head 12.221 -1.41565 3.85316
rclavicle -1.799e-014 4.77083e-015
rhumerus -43.2478 17.4357 -90.9005
rradius 44.3318
rwrist -11.3863
rhand -15.9626 18.3814
rfingers 7.12502
rthumb 10.2362 -11.3495
lclavicle -1.799e-014 4.77083e-015
lhumerus -27.1936 -16.6437 89.0616
lradius 31.6942
lwrist 1.53095
lhand -14.5654 31.4853
lfingers 7.12502
lthumb 11.5839 61.1452
rfemur -33.895 -6.70576 17.0439
rtibia 58.3685
rfoot -12.9633 -13.1821
rtoes -13.5677
lfemur -10.4436 -7.43131 -32.2129
ltibia 27.5761
lfoot -18.8598 -0.542863
ltoes -8.80283
214
root 10.3452 17.0259 -9.3641 3.35512 2.25096 5.45524
lowerback 1.96406 -1.77162 -3.93148
upperback 1.32192 -2.41973 -0.572934
thorax 0.394616 -1.23362 1.64823
lowerneck -21.5333 -3.19648 -10.4473
upperneck 25.7596 -2.7914 6.5017
head 12.3538 -1.41855 3.77333
rclavicle 2.41026e-014 -1.23246e-014
rhumerus -43.2012 17.541 -90.9533
rradius 44.174
rwrist -11.5921
rhand -15.978 18.2614
rfingers 7.12502
rthumb 10.2214 -11.4703
lclavicle 2.41026e-014 -1.23246e-014
lhumerus -26.5326 -17.5399 88.9359
lradius 32.3232
lwrist 2.23737
lhand -14.435 31.9159
lfingers 7.12502
lthumb 11.7096 61.5687
rfemur -34.3758 -6.36345 17.0042
rtibia 55.9408
rfoot -13.4971 -13.118
rtoes -15.2499
lfemur -9.71548 -7.6543 -32.2145
ltibia 27.2376
lfoot -19.2259 -1.05964
ltoes -7.3644
